HIERARCHY
ROOT Hips
{
	OFFSET 0.000000 0.000000 0.000000
	CHANNELS 6 Xposition Yposition Zposition Xrotation Yrotation Zrotation
	JOINT LeftUpLeg_virtual
	{
		OFFSET 0.000000 0.000000 0.000000
		CHANNELS 3 Xrotation Yrotation Zrotation
		JOINT LeftUpLeg
		{
			OFFSET 10.205400 -3.823500 0.155100
			CHANNELS 3 Xrotation Yrotation Zrotation
			JOINT LeftLeg
			{
				OFFSET 0.708757 -12.982077 0.567790
				CHANNELS 3 Xrotation Yrotation Zrotation
				JOINT LeftFoot
				{
					OFFSET -0.708756 -10.717838 -2.184338
					CHANNELS 3 Xrotation Yrotation Zrotation
					JOINT LeftToeBase
					{
						OFFSET 0.108149 -7.191104 7.560241
						CHANNELS 3 Xrotation Yrotation Zrotation
						JOINT LeftToe_End
						{
							OFFSET 0.070230 0.081724 4.490308
							CHANNELS 3 Xrotation Yrotation Zrotation
							End Site
							{
								OFFSET 0 0 0
							}
						}
					}
				}
			}
		}
	}
	JOINT RightUpLeg_virtual
	{
		OFFSET 0.000000 0.000000 0.000000
		CHANNELS 3 Xrotation Yrotation Zrotation
		JOINT RightUpLeg
		{
			OFFSET -10.205400 -3.823500 0.005500
			CHANNELS 3 Xrotation Yrotation Zrotation
			JOINT RightLeg
			{
				OFFSET -0.708756 -12.982134 0.610632
				CHANNELS 3 Xrotation Yrotation Zrotation
				JOINT RightFoot
				{
					OFFSET 0.708754 -10.717769 -1.945823
					CHANNELS 3 Xrotation Yrotation Zrotation
					JOINT RightToeBase
					{
						OFFSET -0.108140 -7.191069 7.372968
						CHANNELS 3 Xrotation Yrotation Zrotation
						JOINT RightToe_End
						{
							OFFSET -0.070227 0.081735 4.479403
							CHANNELS 3 Xrotation Yrotation Zrotation
							End Site
							{
								OFFSET 0 0 0
							}
						}
					}
				}
			}
		}
	}
	JOINT Spine_virtual
	{
		OFFSET 0.000000 0.000000 0.000000
		CHANNELS 3 Xrotation Yrotation Zrotation
		JOINT Spine
		{
			OFFSET 0.000000 6.876099 0.125700
			CHANNELS 3 Xrotation Yrotation Zrotation
			JOINT Spine1
			{
				OFFSET 0.000000 5.730043 0.104720
				CHANNELS 3 Xrotation Yrotation Zrotation
				JOINT Spine1_split
				{
					OFFSET 0.000000 5.730043 0.104720
					CHANNELS 3 Xrotation Yrotation Zrotation
					JOINT Spine2
					{
						OFFSET 0.000000 5.730043 0.104720
						CHANNELS 3 Xrotation Yrotation Zrotation
						JOINT Neck_virtual
						{
							OFFSET 0.000000 0.000000 0.000000
							CHANNELS 3 Xrotation Yrotation Zrotation
							JOINT Neck
							{
								OFFSET 0.000000 10.314075 0.188496
								CHANNELS 3 Xrotation Yrotation Zrotation
								JOINT Head
								{
									OFFSET 0.000000 7.643700 -2.377400
									CHANNELS 3 Xrotation Yrotation Zrotation
									JOINT HeadTop_End
									{
										OFFSET 0.000000 43.788605 -13.619600
										CHANNELS 3 Xrotation Yrotation Zrotation
										End Site
										{
											OFFSET 0 0 0
										}
									}
								}
							}
						}
						JOINT LeftShoulder_virtual
						{
							OFFSET 0.000000 0.000000 0.000000
							CHANNELS 3 Xrotation Yrotation Zrotation
							JOINT LeftShoulder
							{
								OFFSET 2.196100 4.412489 0.087492
								CHANNELS 3 Xrotation Yrotation Zrotation
								JOINT LeftShoulder_split
								{
									OFFSET 2.196100 4.412489 0.087492
									CHANNELS 3 Xrotation Yrotation Zrotation
									JOINT LeftArm
									{
										OFFSET 8.771219 -2.981674 -0.026999
										CHANNELS 3 Xrotation Yrotation Zrotation
										JOINT LeftForeArm
										{
											OFFSET 8.512804 0.000000 -0.000000
											CHANNELS 3 Xrotation Yrotation Zrotation
											JOINT LeftHand
											{
												OFFSET 18.484802 0.000000 -0.000000
												CHANNELS 3 Xrotation Yrotation Zrotation
												End Site
												{
													OFFSET 0 0 0
												}
											}
										}
									}
								}
							}
						}
						JOINT RightShoulder_virtual
						{
							OFFSET 0.000000 0.000000 0.000000
							CHANNELS 3 Xrotation Yrotation Zrotation
							JOINT RightShoulder
							{
								OFFSET -2.196100 4.412496 0.070690
								CHANNELS 3 Xrotation Yrotation Zrotation
								JOINT RightShoulder_split
								{
									OFFSET -2.196100 4.412496 0.070690
									CHANNELS 3 Xrotation Yrotation Zrotation
									JOINT RightArm
									{
										OFFSET -8.771282 -2.981682 -0.094208
										CHANNELS 3 Xrotation Yrotation Zrotation
										JOINT RightForeArm
										{
											OFFSET -8.494598 0.000000 0.000000
											CHANNELS 3 Xrotation Yrotation Zrotation
											JOINT RightHand
											{
												OFFSET -18.483803 0.000000 0.000001
												CHANNELS 3 Xrotation Yrotation Zrotation
												End Site
												{
													OFFSET 0 0 0
												}
											}
										}
									}
								}
							}
						}
					}
				}
			}
		}
	}
}
MOTION
Frames: 6
Frame Time: 0.03333333
-1.050028 30.658300 -0.810026 0.000000 0.000000 0.000000 -0.198757 -45.934685 2.924598 -33.479801 4.535275 18.200227 24.918384 -7.417322 5.078506 4.010670 -3.806398 -22.970399 -1.762424 1.191010 1.393720 0.000000 0.000000 0.000000 -1.703690 -45.033261 2.836536 -3.353188 -10.266480 -23.442657 30.780705 -6.161403 -8.154796 -22.939856 -16.032380 32.930616 -0.948251 -0.605794 0.370113 0.000000 0.000000 0.000000 -1.169215 -45.701817 2.692451 6.574322 2.584221 0.174571 0.449417 2.425170 -1.595275 1.096390 -1.330169 0.920415 0.000000 0.000000 0.000000 -0.603454 1.991916 -1.417229 -17.205071 -2.196481 19.501782 -1.237658 17.674081 -17.099122 0.000000 0.000000 0.000000 -0.411968 1.829844 -1.308897 -7.371190 -7.635981 -13.845333 -5.485783 -2.507845 -2.895707 4.633080 -4.403104 -30.326197 43.988908 -38.908917 17.425495 0.000000 0.000000 0.000000 -0.803512 1.664105 -1.218832 -1.649828 14.905175 -18.891557 -6.136492 2.932068 -0.254797 -73.166783 10.772813 18.310072 -75.880594 34.148186 55.665830 0.000000 0.000000 0.000000 
-0.693837 30.517738 -0.892191 0.000000 0.000000 0.000000 -0.641654 -47.996238 3.070724 -33.322078 4.951008 18.742336 26.418692 -6.660078 3.932966 2.582475 -3.146929 -22.326584 -1.100188 1.173002 1.045748 0.000000 0.000000 0.000000 -1.901868 -46.971604 3.057527 -6.490065 -9.317309 -24.967075 32.900181 -4.783472 -8.229164 -22.517228 -15.701833 32.799856 -0.278102 -0.650228 0.246368 0.000000 0.000000 0.000000 -1.760620 -47.802513 2.627532 7.118202 2.760123 0.430017 1.153324 2.435738 -1.338378 0.981463 -1.289498 1.045854 0.000000 0.000000 0.000000 -0.042252 2.011125 -1.188846 -17.518083 1.442842 19.507235 0.553579 20.848353 -16.658019 0.000000 0.000000 0.000000 0.274032 1.806021 -1.164319 -7.009331 -7.227494 -13.200824 -5.715086 -2.762712 -3.646510 4.094913 -3.213629 -30.699679 44.224280 -40.080844 18.205036 0.000000 0.000000 0.000000 -0.232123 1.680037 -0.977242 -2.558345 15.252239 -13.015510 -5.314502 3.441802 -0.111522 -65.705122 12.376732 18.990728 -78.736542 41.037098 60.590478 0.000000 0.000000 0.000000 
-0.376582 30.359159 -0.977825 0.000000 0.000000 0.000000 -0.919154 -50.157740 3.272561 -33.361055 5.227024 19.376389 28.199380 -6.010671 2.893770 1.048243 -2.509594 -21.845527 -0.543622 1.174758 0.730436 0.000000 0.000000 0.000000 -2.016328 -48.971821 3.312910 -9.733084 -8.235905 -26.353810 35.114518 -3.284758 -8.285323 -22.046973 -15.101442 32.880797 0.265754 -0.620379 0.013079 0.000000 0.000000 0.000000 -2.065145 -49.914852 2.703271 7.623914 2.904597 0.628129 1.905898 2.456250 -1.180690 1.030601 -1.384473 1.071042 0.000000 0.000000 0.000000 0.566255 2.042924 -1.063549 -18.169724 4.839174 19.168584 1.886066 23.116842 -15.913309 0.000000 0.000000 0.000000 1.024240 1.796071 -1.093934 -6.692499 -6.972836 -12.494974 -6.025135 -2.979294 -4.532527 3.433202 -3.005831 -30.858115 43.353236 -40.190281 18.005241 0.000000 0.000000 0.000000 0.424965 1.699408 -0.831134 -3.551067 15.619987 -7.100054 -4.345552 4.224079 0.225651 -57.328981 13.454391 19.145857 -81.514298 48.095327 64.256603 0.000000 0.000000 0.000000 
-0.098164 30.185722 -1.030874 0.000000 0.000000 0.000000 -1.014555 -52.226417 3.503137 -33.605009 5.287924 20.030121 30.181322 -5.544252 2.023254 -0.471576 -2.038158 -21.592810 -0.218178 1.179684 0.500392 0.000000 0.000000 0.000000 -1.993729 -50.865887 3.615994 -12.914254 -7.078425 -27.440504 37.234667 -1.777709 -8.313705 -21.765964 -14.361651 32.901510 0.811888 -0.522086 -0.248520 0.000000 0.000000 0.000000 -2.042686 -51.900859 2.930015 8.058285 2.978311 0.759123 2.645628 2.475207 -1.107596 1.052552 -1.523030 1.059773 0.000000 0.000000 0.000000 1.182598 2.065521 -1.011791 -19.074927 7.993854 18.557909 2.887285 24.636526 -15.014559 0.000000 0.000000 0.000000 1.766718 1.780466 -1.074091 -6.430370 -6.919861 -11.738115 -6.390742 -3.093398 -5.420519 2.602892 -3.533132 -30.792289 41.489660 -39.406834 16.928153 0.000000 0.000000 0.000000 1.124152 1.720352 -0.760277 -4.529697 16.028159 -1.452834 -3.609688 4.598157 0.548655 -48.826704 14.172938 19.041956 -82.622305 54.935273 65.192380 0.000000 0.000000 0.000000 
0.143144 30.001553 -1.067184 0.000000 0.000000 0.000000 -0.928064 -53.963907 3.783451 -34.047171 5.088291 20.602164 32.280266 -5.309295 1.367592 -1.869533 -1.794623 -21.475751 -0.032360 1.172713 0.379290 0.000000 0.000000 0.000000 -1.830842 -52.529585 3.952601 -15.895665 -5.875552 -28.187854 39.210579 -0.433075 -8.264209 -21.774918 -13.628615 32.555004 1.394303 -0.380046 -0.451297 0.000000 0.000000 0.000000 -1.689991 -53.676534 3.353670 8.413997 2.966041 0.812853 3.301709 2.477908 -1.090572 1.112643 -1.630662 1.012626 0.000000 0.000000 0.000000 1.764903 2.061272 -1.003903 -20.086555 10.915673 17.774210 3.691353 25.611246 -14.151345 0.000000 0.000000 0.000000 2.438313 1.747842 -1.068923 -6.243461 -7.099606 -10.965342 -6.591913 -3.115921 -6.252221 1.578979 -4.517723 -30.519099 38.974924 -38.099574 15.281317 0.000000 0.000000 0.000000 1.783539 1.738151 -0.732227 -5.427868 16.457442 3.560299 -2.858042 4.821386 1.019812 -40.975667 14.725555 18.852546 -80.324568 61.167800 61.851051 0.000000 0.000000 0.000000 
0.333401 29.817385 -1.061079 0.000000 0.000000 0.000000 -0.709302 -55.291686 4.139109 -34.596913 4.688718 21.021166 34.352976 -5.267389 0.912105 -3.082334 -1.741934 -21.432114 0.195865 1.155079 0.331385 0.000000 0.000000 0.000000 -1.578076 -53.946142 4.343993 -18.563706 -4.690945 -28.724849 41.116380 0.678795 -8.114714 -22.021017 -13.008182 31.812750 1.918229 -0.219752 -0.557978 0.000000 0.000000 0.000000 -1.158903 -55.165464 3.919889 8.698968 2.872847 0.768415 3.819810 2.450470 -1.111701 0.981172 -1.611850 0.873548 0.000000 0.000000 0.000000 2.309204 2.013868 -1.022377 -21.030012 13.605673 16.940298 4.459383 26.257537 -13.465328 0.000000 0.000000 0.000000 2.996553 1.691478 -1.059736 -6.128664 -7.513805 -10.185654 -6.590613 -3.052031 -6.964097 0.358799 -5.620886 -30.061175 36.129225 -36.734414 13.407580 0.000000 0.000000 0.000000 2.356782 1.730031 -0.741548 -6.178058 16.869963 7.633179 -2.129914 4.590804 1.550158 -34.229196 15.187735 18.807356 -72.821933 66.297245 52.729088 0.000000 0.000000 0.000000 
